<?xml version="1.0" encoding="utf-8" standalone="no"?>
<!DOCTYPE svg PUBLIC "-//W3C//DTD SVG 1.1//EN"
  "http://www.w3.org/Graphics/SVG/1.1/DTD/svg11.dtd">
<!-- Created with matplotlib (http://matplotlib.org/) -->
<svg height="288pt" version="1.1" viewBox="0 0 432 288" width="432pt" xmlns="http://www.w3.org/2000/svg" xmlns:xlink="http://www.w3.org/1999/xlink">
 <defs>
  <style type="text/css">
*{stroke-linecap:butt;stroke-linejoin:round;}
  </style>
 </defs>
 <g id="figure_1">
  <g id="patch_1">
   <path d="M 0 288 
L 432 288 
L 432 0 
L 0 0 
z
" style="fill:#ffffff;"/>
  </g>
  <g id="axes_1">
   <g id="patch_2">
    <path d="M 56.175 75.4 
L 417.7 75.4 
L 417.7 26.8 
L 56.175 26.8 
z
" style="fill:#ffffff;"/>
   </g>
   <g id="matplotlib.axis_1">
    <g id="xtick_1">
     <g id="line2d_1">
      <defs>
       <path d="M 0 0 
L 0 3.5 
" id="m977f34ed16" style="stroke:#000000;stroke-width:0.8;"/>
      </defs>
      <g>
       <use style="stroke:#000000;stroke-width:0.8;" x="65.935058" xlink:href="#m977f34ed16" y="75.4"/>
      </g>
     </g>
     <g id="text_1">
      <!-- 2002 -->
      <defs>
       <path d="M 19.1875 8.296875 
L 53.609375 8.296875 
L 53.609375 0 
L 7.328125 0 
L 7.328125 8.296875 
Q 12.9375 14.109375 22.625 23.890625 
Q 32.328125 33.6875 34.8125 36.53125 
Q 39.546875 41.84375 41.421875 45.53125 
Q 43.3125 49.21875 43.3125 52.78125 
Q 43.3125 58.59375 39.234375 62.25 
Q 35.15625 65.921875 28.609375 65.921875 
Q 23.96875 65.921875 18.8125 64.3125 
Q 13.671875 62.703125 7.8125 59.421875 
L 7.8125 69.390625 
Q 13.765625 71.78125 18.9375 73 
Q 24.125 74.21875 28.421875 74.21875 
Q 39.75 74.21875 46.484375 68.546875 
Q 53.21875 62.890625 53.21875 53.421875 
Q 53.21875 48.921875 51.53125 44.890625 
Q 49.859375 40.875 45.40625 35.40625 
Q 44.1875 33.984375 37.640625 27.21875 
Q 31.109375 20.453125 19.1875 8.296875 
z
" id="DejaVuSans-32"/>
       <path d="M 31.78125 66.40625 
Q 24.171875 66.40625 20.328125 58.90625 
Q 16.5 51.421875 16.5 36.375 
Q 16.5 21.390625 20.328125 13.890625 
Q 24.171875 6.390625 31.78125 6.390625 
Q 39.453125 6.390625 43.28125 13.890625 
Q 47.125 21.390625 47.125 36.375 
Q 47.125 51.421875 43.28125 58.90625 
Q 39.453125 66.40625 31.78125 66.40625 
z
M 31.78125 74.21875 
Q 44.046875 74.21875 50.515625 64.515625 
Q 56.984375 54.828125 56.984375 36.375 
Q 56.984375 17.96875 50.515625 8.265625 
Q 44.046875 -1.421875 31.78125 -1.421875 
Q 19.53125 -1.421875 13.0625 8.265625 
Q 6.59375 17.96875 6.59375 36.375 
Q 6.59375 54.828125 13.0625 64.515625 
Q 19.53125 74.21875 31.78125 74.21875 
z
" id="DejaVuSans-30"/>
      </defs>
      <g transform="translate(53.210058 89.998437)scale(0.1 -0.1)">
       <use xlink:href="#DejaVuSans-32"/>
       <use x="63.623047" xlink:href="#DejaVuSans-30"/>
       <use x="127.246094" xlink:href="#DejaVuSans-30"/>
       <use x="190.869141" xlink:href="#DejaVuSans-32"/>
      </g>
     </g>
    </g>
    <g id="xtick_2">
     <g id="line2d_2">
      <g>
       <use style="stroke:#000000;stroke-width:0.8;" x="112.327615" xlink:href="#m977f34ed16" y="75.4"/>
      </g>
     </g>
     <g id="text_2">
      <!-- 2004 -->
      <defs>
       <path d="M 37.796875 64.3125 
L 12.890625 25.390625 
L 37.796875 25.390625 
z
M 35.203125 72.90625 
L 47.609375 72.90625 
L 47.609375 25.390625 
L 58.015625 25.390625 
L 58.015625 17.1875 
L 47.609375 17.1875 
L 47.609375 0 
L 37.796875 0 
L 37.796875 17.1875 
L 4.890625 17.1875 
L 4.890625 26.703125 
z
" id="DejaVuSans-34"/>
      </defs>
      <g transform="translate(99.602615 89.998437)scale(0.1 -0.1)">
       <use xlink:href="#DejaVuSans-32"/>
       <use x="63.623047" xlink:href="#DejaVuSans-30"/>
       <use x="127.246094" xlink:href="#DejaVuSans-30"/>
       <use x="190.869141" xlink:href="#DejaVuSans-34"/>
      </g>
     </g>
    </g>
    <g id="xtick_3">
     <g id="line2d_3">
      <g>
       <use style="stroke:#000000;stroke-width:0.8;" x="158.720171" xlink:href="#m977f34ed16" y="75.4"/>
      </g>
     </g>
     <g id="text_3">
      <!-- 2006 -->
      <defs>
       <path d="M 33.015625 40.375 
Q 26.375 40.375 22.484375 35.828125 
Q 18.609375 31.296875 18.609375 23.390625 
Q 18.609375 15.53125 22.484375 10.953125 
Q 26.375 6.390625 33.015625 6.390625 
Q 39.65625 6.390625 43.53125 10.953125 
Q 47.40625 15.53125 47.40625 23.390625 
Q 47.40625 31.296875 43.53125 35.828125 
Q 39.65625 40.375 33.015625 40.375 
z
M 52.59375 71.296875 
L 52.59375 62.3125 
Q 48.875 64.0625 45.09375 64.984375 
Q 41.3125 65.921875 37.59375 65.921875 
Q 27.828125 65.921875 22.671875 59.328125 
Q 17.53125 52.734375 16.796875 39.40625 
Q 19.671875 43.65625 24.015625 45.921875 
Q 28.375 48.1875 33.59375 48.1875 
Q 44.578125 48.1875 50.953125 41.515625 
Q 57.328125 34.859375 57.328125 23.390625 
Q 57.328125 12.15625 50.6875 5.359375 
Q 44.046875 -1.421875 33.015625 -1.421875 
Q 20.359375 -1.421875 13.671875 8.265625 
Q 6.984375 17.96875 6.984375 36.375 
Q 6.984375 53.65625 15.1875 63.9375 
Q 23.390625 74.21875 37.203125 74.21875 
Q 40.921875 74.21875 44.703125 73.484375 
Q 48.484375 72.75 52.59375 71.296875 
z
" id="DejaVuSans-36"/>
      </defs>
      <g transform="translate(145.995171 89.998437)scale(0.1 -0.1)">
       <use xlink:href="#DejaVuSans-32"/>
       <use x="63.623047" xlink:href="#DejaVuSans-30"/>
       <use x="127.246094" xlink:href="#DejaVuSans-30"/>
       <use x="190.869141" xlink:href="#DejaVuSans-36"/>
      </g>
     </g>
    </g>
    <g id="xtick_4">
     <g id="line2d_4">
      <g>
       <use style="stroke:#000000;stroke-width:0.8;" x="205.112728" xlink:href="#m977f34ed16" y="75.4"/>
      </g>
     </g>
     <g id="text_4">
      <!-- 2008 -->
      <defs>
       <path d="M 31.78125 34.625 
Q 24.75 34.625 20.71875 30.859375 
Q 16.703125 27.09375 16.703125 20.515625 
Q 16.703125 13.921875 20.71875 10.15625 
Q 24.75 6.390625 31.78125 6.390625 
Q 38.8125 6.390625 42.859375 10.171875 
Q 46.921875 13.96875 46.921875 20.515625 
Q 46.921875 27.09375 42.890625 30.859375 
Q 38.875 34.625 31.78125 34.625 
z
M 21.921875 38.8125 
Q 15.578125 40.375 12.03125 44.71875 
Q 8.5 49.078125 8.5 55.328125 
Q 8.5 64.0625 14.71875 69.140625 
Q 20.953125 74.21875 31.78125 74.21875 
Q 42.671875 74.21875 48.875 69.140625 
Q 55.078125 64.0625 55.078125 55.328125 
Q 55.078125 49.078125 51.53125 44.71875 
Q 48 40.375 41.703125 38.8125 
Q 48.828125 37.15625 52.796875 32.3125 
Q 56.78125 27.484375 56.78125 20.515625 
Q 56.78125 9.90625 50.3125 4.234375 
Q 43.84375 -1.421875 31.78125 -1.421875 
Q 19.734375 -1.421875 13.25 4.234375 
Q 6.78125 9.90625 6.78125 20.515625 
Q 6.78125 27.484375 10.78125 32.3125 
Q 14.796875 37.15625 21.921875 38.8125 
z
M 18.3125 54.390625 
Q 18.3125 48.734375 21.84375 45.5625 
Q 25.390625 42.390625 31.78125 42.390625 
Q 38.140625 42.390625 41.71875 45.5625 
Q 45.3125 48.734375 45.3125 54.390625 
Q 45.3125 60.0625 41.71875 63.234375 
Q 38.140625 66.40625 31.78125 66.40625 
Q 25.390625 66.40625 21.84375 63.234375 
Q 18.3125 60.0625 18.3125 54.390625 
z
" id="DejaVuSans-38"/>
      </defs>
      <g transform="translate(192.387728 89.998437)scale(0.1 -0.1)">
       <use xlink:href="#DejaVuSans-32"/>
       <use x="63.623047" xlink:href="#DejaVuSans-30"/>
       <use x="127.246094" xlink:href="#DejaVuSans-30"/>
       <use x="190.869141" xlink:href="#DejaVuSans-38"/>
      </g>
     </g>
    </g>
    <g id="xtick_5">
     <g id="line2d_5">
      <g>
       <use style="stroke:#000000;stroke-width:0.8;" x="251.505285" xlink:href="#m977f34ed16" y="75.4"/>
      </g>
     </g>
     <g id="text_5">
      <!-- 2010 -->
      <defs>
       <path d="M 12.40625 8.296875 
L 28.515625 8.296875 
L 28.515625 63.921875 
L 10.984375 60.40625 
L 10.984375 69.390625 
L 28.421875 72.90625 
L 38.28125 72.90625 
L 38.28125 8.296875 
L 54.390625 8.296875 
L 54.390625 0 
L 12.40625 0 
z
" id="DejaVuSans-31"/>
      </defs>
      <g transform="translate(238.780285 89.998437)scale(0.1 -0.1)">
       <use xlink:href="#DejaVuSans-32"/>
       <use x="63.623047" xlink:href="#DejaVuSans-30"/>
       <use x="127.246094" xlink:href="#DejaVuSans-31"/>
       <use x="190.869141" xlink:href="#DejaVuSans-30"/>
      </g>
     </g>
    </g>
    <g id="xtick_6">
     <g id="line2d_6">
      <g>
       <use style="stroke:#000000;stroke-width:0.8;" x="297.897841" xlink:href="#m977f34ed16" y="75.4"/>
      </g>
     </g>
     <g id="text_6">
      <!-- 2012 -->
      <g transform="translate(285.172841 89.998437)scale(0.1 -0.1)">
       <use xlink:href="#DejaVuSans-32"/>
       <use x="63.623047" xlink:href="#DejaVuSans-30"/>
       <use x="127.246094" xlink:href="#DejaVuSans-31"/>
       <use x="190.869141" xlink:href="#DejaVuSans-32"/>
      </g>
     </g>
    </g>
    <g id="xtick_7">
     <g id="line2d_7">
      <g>
       <use style="stroke:#000000;stroke-width:0.8;" x="344.290398" xlink:href="#m977f34ed16" y="75.4"/>
      </g>
     </g>
     <g id="text_7">
      <!-- 2014 -->
      <g transform="translate(331.565398 89.998437)scale(0.1 -0.1)">
       <use xlink:href="#DejaVuSans-32"/>
       <use x="63.623047" xlink:href="#DejaVuSans-30"/>
       <use x="127.246094" xlink:href="#DejaVuSans-31"/>
       <use x="190.869141" xlink:href="#DejaVuSans-34"/>
      </g>
     </g>
    </g>
    <g id="xtick_8">
     <g id="line2d_8">
      <g>
       <use style="stroke:#000000;stroke-width:0.8;" x="390.682955" xlink:href="#m977f34ed16" y="75.4"/>
      </g>
     </g>
     <g id="text_8">
      <!-- 2016 -->
      <g transform="translate(377.957955 89.998437)scale(0.1 -0.1)">
       <use xlink:href="#DejaVuSans-32"/>
       <use x="63.623047" xlink:href="#DejaVuSans-30"/>
       <use x="127.246094" xlink:href="#DejaVuSans-31"/>
       <use x="190.869141" xlink:href="#DejaVuSans-36"/>
      </g>
     </g>
    </g>
   </g>
   <g id="matplotlib.axis_2">
    <g id="ytick_1">
     <g id="line2d_9">
      <defs>
       <path d="M 0 0 
L -3.5 0 
" id="m8233a37f8d" style="stroke:#000000;stroke-width:0.8;"/>
      </defs>
      <g>
       <use style="stroke:#000000;stroke-width:0.8;" x="56.175" xlink:href="#m8233a37f8d" y="53.180323"/>
      </g>
     </g>
     <g id="text_9">
      <!-- 0.0 -->
      <defs>
       <path d="M 10.6875 12.40625 
L 21 12.40625 
L 21 0 
L 10.6875 0 
z
" id="DejaVuSans-2e"/>
      </defs>
      <g transform="translate(33.271875 56.979542)scale(0.1 -0.1)">
       <use xlink:href="#DejaVuSans-30"/>
       <use x="63.623047" xlink:href="#DejaVuSans-2e"/>
       <use x="95.410156" xlink:href="#DejaVuSans-30"/>
      </g>
     </g>
    </g>
    <g id="ytick_2">
     <g id="line2d_10">
      <g>
       <use style="stroke:#000000;stroke-width:0.8;" x="56.175" xlink:href="#m8233a37f8d" y="28.532179"/>
      </g>
     </g>
     <g id="text_10">
      <!-- 2.5 -->
      <defs>
       <path d="M 10.796875 72.90625 
L 49.515625 72.90625 
L 49.515625 64.59375 
L 19.828125 64.59375 
L 19.828125 46.734375 
Q 21.96875 47.46875 24.109375 47.828125 
Q 26.265625 48.1875 28.421875 48.1875 
Q 40.625 48.1875 47.75 41.5 
Q 54.890625 34.8125 54.890625 23.390625 
Q 54.890625 11.625 47.5625 5.09375 
Q 40.234375 -1.421875 26.90625 -1.421875 
Q 22.3125 -1.421875 17.546875 -0.640625 
Q 12.796875 0.140625 7.71875 1.703125 
L 7.71875 11.625 
Q 12.109375 9.234375 16.796875 8.0625 
Q 21.484375 6.890625 26.703125 6.890625 
Q 35.15625 6.890625 40.078125 11.328125 
Q 45.015625 15.765625 45.015625 23.390625 
Q 45.015625 31 40.078125 35.4375 
Q 35.15625 39.890625 26.703125 39.890625 
Q 22.75 39.890625 18.8125 39.015625 
Q 14.890625 38.140625 10.796875 36.28125 
z
" id="DejaVuSans-35"/>
      </defs>
      <g transform="translate(33.271875 32.331398)scale(0.1 -0.1)">
       <use xlink:href="#DejaVuSans-32"/>
       <use x="63.623047" xlink:href="#DejaVuSans-2e"/>
       <use x="95.410156" xlink:href="#DejaVuSans-35"/>
      </g>
     </g>
    </g>
    <g id="text_11">
     <!-- mm -->
     <defs>
      <path d="M 52 44.1875 
Q 55.375 50.25 60.0625 53.125 
Q 64.75 56 71.09375 56 
Q 79.640625 56 84.28125 50.015625 
Q 88.921875 44.046875 88.921875 33.015625 
L 88.921875 0 
L 79.890625 0 
L 79.890625 32.71875 
Q 79.890625 40.578125 77.09375 44.375 
Q 74.3125 48.1875 68.609375 48.1875 
Q 61.625 48.1875 57.5625 43.546875 
Q 53.515625 38.921875 53.515625 30.90625 
L 53.515625 0 
L 44.484375 0 
L 44.484375 32.71875 
Q 44.484375 40.625 41.703125 44.40625 
Q 38.921875 48.1875 33.109375 48.1875 
Q 26.21875 48.1875 22.15625 43.53125 
Q 18.109375 38.875 18.109375 30.90625 
L 18.109375 0 
L 9.078125 0 
L 9.078125 54.6875 
L 18.109375 54.6875 
L 18.109375 46.1875 
Q 21.1875 51.21875 25.484375 53.609375 
Q 29.78125 56 35.6875 56 
Q 41.65625 56 45.828125 52.96875 
Q 50 49.953125 52 44.1875 
z
" id="DejaVuSans-6d"/>
     </defs>
     <g transform="translate(27.192188 60.840625)rotate(-90)scale(0.1 -0.1)">
      <use xlink:href="#DejaVuSans-6d"/>
      <use x="97.412109" xlink:href="#DejaVuSans-6d"/>
     </g>
    </g>
   </g>
   <g id="line2d_11">
    <path clip-path="url(#p2e4c1c9e28)" d="M 72.607955 37.396381 
L 74.546282 38.027098 
L 80.39302 65.982293 
L 82.331324 72.655108 
L 84.269652 69.797224 
L 86.207979 59.015817 
L 88.146283 55.822851 
L 90.116389 49.046895 
L 91.991159 46.188723 
L 93.865929 42.876295 
L 95.804233 36.600463 
L 97.74256 45.29992 
L 101.619192 53.00997 
L 103.589298 60.740739 
L 105.527602 60.615813 
L 107.46593 62.594542 
L 109.404257 61.494454 
L 111.342561 56.851071 
L 115.211306 42.938654 
L 117.112636 36.775958 
L 119.045651 29.009091 
L 120.97869 36.079736 
L 122.911705 49.698392 
L 124.844721 56.458604 
L 126.809446 60.031608 
L 128.742461 60.71727 
L 130.6755 66.222179 
L 132.608515 61.120543 
L 136.508946 49.235518 
L 138.383716 39.815616 
L 140.258485 35.346651 
L 142.19679 38.964112 
L 144.135117 40.89832 
L 146.073444 49.352268 
L 148.011749 56.187076 
L 149.981855 64.133998 
L 151.920159 65.49427 
L 153.858487 69.547322 
L 155.796814 73.190909 
L 159.705224 53.620412 
L 161.579994 48.791563 
L 163.454764 39.558526 
L 165.393068 34.101802 
L 167.331395 38.410238 
L 169.269723 49.127205 
L 171.208027 62.440198 
L 173.178133 66.622474 
L 175.116437 71.967967 
L 177.054765 70.941243 
L 178.993092 57.246588 
L 180.931397 52.606225 
L 182.901503 44.089683 
L 184.776272 39.13654 
L 186.651042 36.930403 
L 188.589346 38.438091 
L 190.527674 40.545744 
L 192.466001 49.992731 
L 194.404305 57.748888 
L 196.374412 60.239785 
L 198.312716 65.668966 
L 200.251043 69.301649 
L 202.189371 64.27258 
L 204.127675 56.816322 
L 206.09509 51.114244 
L 207.99642 38.454674 
L 209.897749 31.40916 
L 211.830765 31.328314 
L 213.763803 34.8368 
L 215.696819 43.20518 
L 217.629834 54.849577 
L 219.594559 57.935683 
L 221.527574 65.575904 
L 223.460613 69.655488 
L 225.393629 69.007596 
L 227.326644 57.535354 
L 229.29406 47.579891 
L 231.168829 44.094668 
L 233.043599 36.042252 
L 234.981903 29.800908 
L 236.92023 32.607582 
L 238.858558 41.25072 
L 242.766968 60.239744 
L 246.6436 65.194164 
L 250.520232 55.066933 
L 252.490338 41.479741 
L 254.365107 40.300327 
L 256.239877 34.229528 
L 258.178181 32.018452 
L 260.116509 35.794439 
L 262.054836 50.632453 
L 263.99314 56.45773 
L 267.901551 69.904651 
L 269.839878 70.82523 
L 271.778206 64.097716 
L 277.561386 45.456241 
L 279.436155 36.222173 
L 281.37446 33.447827 
L 283.312787 42.08641 
L 287.189419 62.087152 
L 289.159525 65.86904 
L 291.097829 69.868586 
L 293.036157 65.819093 
L 298.880204 52.944175 
L 300.781533 45.956361 
L 302.682862 44.665092 
L 308.481932 54.242183 
L 310.414948 60.939859 
L 312.379672 68.561159 
L 314.312688 70.710556 
L 318.178742 65.734303 
L 322.079173 52.844383 
L 323.953943 47.897745 
L 327.767016 38.225771 
L 329.705344 42.904226 
L 331.643671 46.998774 
L 333.581975 56.570431 
L 339.428713 66.106599 
L 341.367041 62.70286 
L 343.305345 57.988175 
L 345.275451 53.591624 
L 349.02499 37.0021 
L 350.963295 34.927791 
L 352.901622 35.532597 
L 354.83995 43.186289 
L 358.74836 62.906311 
L 360.686664 65.27712 
L 362.624992 64.778251 
L 364.563319 61.520669 
L 368.47173 57.053201 
L 370.346499 52.777334 
L 372.221269 44.483033 
L 374.159573 39.629621 
L 381.944638 67.230515 
L 383.882943 72.467496 
L 391.665317 59.566452 
L 395.467976 47.430473 
L 399.33403 48.500288 
L 401.267045 56.676002 
L 401.267045 56.676002 
" style="fill:none;stroke:#1f77b4;stroke-linecap:square;stroke-width:1.5;"/>
   </g>
   <g id="patch_3">
    <path d="M 56.175 75.4 
L 56.175 26.8 
" style="fill:none;stroke:#000000;stroke-linecap:square;stroke-linejoin:miter;stroke-width:0.8;"/>
   </g>
   <g id="patch_4">
    <path d="M 417.7 75.4 
L 417.7 26.8 
" style="fill:none;stroke:#000000;stroke-linecap:square;stroke-linejoin:miter;stroke-width:0.8;"/>
   </g>
   <g id="patch_5">
    <path d="M 56.175 75.4 
L 417.7 75.4 
" style="fill:none;stroke:#000000;stroke-linecap:square;stroke-linejoin:miter;stroke-width:0.8;"/>
   </g>
   <g id="patch_6">
    <path d="M 56.175 26.8 
L 417.7 26.8 
" style="fill:none;stroke:#000000;stroke-linecap:square;stroke-linejoin:miter;stroke-width:0.8;"/>
   </g>
   <g id="text_12">
    <!-- CM-CF from Hydrology, Ice sheets and glaciers (X) -->
    <defs>
     <path d="M 64.40625 67.28125 
L 64.40625 56.890625 
Q 59.421875 61.53125 53.78125 63.8125 
Q 48.140625 66.109375 41.796875 66.109375 
Q 29.296875 66.109375 22.65625 58.46875 
Q 16.015625 50.828125 16.015625 36.375 
Q 16.015625 21.96875 22.65625 14.328125 
Q 29.296875 6.6875 41.796875 6.6875 
Q 48.140625 6.6875 53.78125 8.984375 
Q 59.421875 11.28125 64.40625 15.921875 
L 64.40625 5.609375 
Q 59.234375 2.09375 53.4375 0.328125 
Q 47.65625 -1.421875 41.21875 -1.421875 
Q 24.65625 -1.421875 15.125 8.703125 
Q 5.609375 18.84375 5.609375 36.375 
Q 5.609375 53.953125 15.125 64.078125 
Q 24.65625 74.21875 41.21875 74.21875 
Q 47.75 74.21875 53.53125 72.484375 
Q 59.328125 70.75 64.40625 67.28125 
z
" id="DejaVuSans-43"/>
     <path d="M 9.8125 72.90625 
L 24.515625 72.90625 
L 43.109375 23.296875 
L 61.8125 72.90625 
L 76.515625 72.90625 
L 76.515625 0 
L 66.890625 0 
L 66.890625 64.015625 
L 48.09375 14.015625 
L 38.1875 14.015625 
L 19.390625 64.015625 
L 19.390625 0 
L 9.8125 0 
z
" id="DejaVuSans-4d"/>
     <path d="M 4.890625 31.390625 
L 31.203125 31.390625 
L 31.203125 23.390625 
L 4.890625 23.390625 
z
" id="DejaVuSans-2d"/>
     <path d="M 9.8125 72.90625 
L 51.703125 72.90625 
L 51.703125 64.59375 
L 19.671875 64.59375 
L 19.671875 43.109375 
L 48.578125 43.109375 
L 48.578125 34.8125 
L 19.671875 34.8125 
L 19.671875 0 
L 9.8125 0 
z
" id="DejaVuSans-46"/>
     <path id="DejaVuSans-20"/>
     <path d="M 37.109375 75.984375 
L 37.109375 68.5 
L 28.515625 68.5 
Q 23.6875 68.5 21.796875 66.546875 
Q 19.921875 64.59375 19.921875 59.515625 
L 19.921875 54.6875 
L 34.71875 54.6875 
L 34.71875 47.703125 
L 19.921875 47.703125 
L 19.921875 0 
L 10.890625 0 
L 10.890625 47.703125 
L 2.296875 47.703125 
L 2.296875 54.6875 
L 10.890625 54.6875 
L 10.890625 58.5 
Q 10.890625 67.625 15.140625 71.796875 
Q 19.390625 75.984375 28.609375 75.984375 
z
" id="DejaVuSans-66"/>
     <path d="M 41.109375 46.296875 
Q 39.59375 47.171875 37.8125 47.578125 
Q 36.03125 48 33.890625 48 
Q 26.265625 48 22.1875 43.046875 
Q 18.109375 38.09375 18.109375 28.8125 
L 18.109375 0 
L 9.078125 0 
L 9.078125 54.6875 
L 18.109375 54.6875 
L 18.109375 46.1875 
Q 20.953125 51.171875 25.484375 53.578125 
Q 30.03125 56 36.53125 56 
Q 37.453125 56 38.578125 55.875 
Q 39.703125 55.765625 41.0625 55.515625 
z
" id="DejaVuSans-72"/>
     <path d="M 30.609375 48.390625 
Q 23.390625 48.390625 19.1875 42.75 
Q 14.984375 37.109375 14.984375 27.296875 
Q 14.984375 17.484375 19.15625 11.84375 
Q 23.34375 6.203125 30.609375 6.203125 
Q 37.796875 6.203125 41.984375 11.859375 
Q 46.1875 17.53125 46.1875 27.296875 
Q 46.1875 37.015625 41.984375 42.703125 
Q 37.796875 48.390625 30.609375 48.390625 
z
M 30.609375 56 
Q 42.328125 56 49.015625 48.375 
Q 55.71875 40.765625 55.71875 27.296875 
Q 55.71875 13.875 49.015625 6.21875 
Q 42.328125 -1.421875 30.609375 -1.421875 
Q 18.84375 -1.421875 12.171875 6.21875 
Q 5.515625 13.875 5.515625 27.296875 
Q 5.515625 40.765625 12.171875 48.375 
Q 18.84375 56 30.609375 56 
z
" id="DejaVuSans-6f"/>
     <path d="M 9.8125 72.90625 
L 19.671875 72.90625 
L 19.671875 43.015625 
L 55.515625 43.015625 
L 55.515625 72.90625 
L 65.375 72.90625 
L 65.375 0 
L 55.515625 0 
L 55.515625 34.71875 
L 19.671875 34.71875 
L 19.671875 0 
L 9.8125 0 
z
" id="DejaVuSans-48"/>
     <path d="M 32.171875 -5.078125 
Q 28.375 -14.84375 24.75 -17.8125 
Q 21.140625 -20.796875 15.09375 -20.796875 
L 7.90625 -20.796875 
L 7.90625 -13.28125 
L 13.1875 -13.28125 
Q 16.890625 -13.28125 18.9375 -11.515625 
Q 21 -9.765625 23.484375 -3.21875 
L 25.09375 0.875 
L 2.984375 54.6875 
L 12.5 54.6875 
L 29.59375 11.921875 
L 46.6875 54.6875 
L 56.203125 54.6875 
z
" id="DejaVuSans-79"/>
     <path d="M 45.40625 46.390625 
L 45.40625 75.984375 
L 54.390625 75.984375 
L 54.390625 0 
L 45.40625 0 
L 45.40625 8.203125 
Q 42.578125 3.328125 38.25 0.953125 
Q 33.9375 -1.421875 27.875 -1.421875 
Q 17.96875 -1.421875 11.734375 6.484375 
Q 5.515625 14.40625 5.515625 27.296875 
Q 5.515625 40.1875 11.734375 48.09375 
Q 17.96875 56 27.875 56 
Q 33.9375 56 38.25 53.625 
Q 42.578125 51.265625 45.40625 46.390625 
z
M 14.796875 27.296875 
Q 14.796875 17.390625 18.875 11.75 
Q 22.953125 6.109375 30.078125 6.109375 
Q 37.203125 6.109375 41.296875 11.75 
Q 45.40625 17.390625 45.40625 27.296875 
Q 45.40625 37.203125 41.296875 42.84375 
Q 37.203125 48.484375 30.078125 48.484375 
Q 22.953125 48.484375 18.875 42.84375 
Q 14.796875 37.203125 14.796875 27.296875 
z
" id="DejaVuSans-64"/>
     <path d="M 9.421875 75.984375 
L 18.40625 75.984375 
L 18.40625 0 
L 9.421875 0 
z
" id="DejaVuSans-6c"/>
     <path d="M 45.40625 27.984375 
Q 45.40625 37.75 41.375 43.109375 
Q 37.359375 48.484375 30.078125 48.484375 
Q 22.859375 48.484375 18.828125 43.109375 
Q 14.796875 37.75 14.796875 27.984375 
Q 14.796875 18.265625 18.828125 12.890625 
Q 22.859375 7.515625 30.078125 7.515625 
Q 37.359375 7.515625 41.375 12.890625 
Q 45.40625 18.265625 45.40625 27.984375 
z
M 54.390625 6.78125 
Q 54.390625 -7.171875 48.1875 -13.984375 
Q 42 -20.796875 29.203125 -20.796875 
Q 24.46875 -20.796875 20.265625 -20.09375 
Q 16.0625 -19.390625 12.109375 -17.921875 
L 12.109375 -9.1875 
Q 16.0625 -11.328125 19.921875 -12.34375 
Q 23.78125 -13.375 27.78125 -13.375 
Q 36.625 -13.375 41.015625 -8.765625 
Q 45.40625 -4.15625 45.40625 5.171875 
L 45.40625 9.625 
Q 42.625 4.78125 38.28125 2.390625 
Q 33.9375 0 27.875 0 
Q 17.828125 0 11.671875 7.65625 
Q 5.515625 15.328125 5.515625 27.984375 
Q 5.515625 40.671875 11.671875 48.328125 
Q 17.828125 56 27.875 56 
Q 33.9375 56 38.28125 53.609375 
Q 42.625 51.21875 45.40625 46.390625 
L 45.40625 54.6875 
L 54.390625 54.6875 
z
" id="DejaVuSans-67"/>
     <path d="M 11.71875 12.40625 
L 22.015625 12.40625 
L 22.015625 4 
L 14.015625 -11.625 
L 7.71875 -11.625 
L 11.71875 4 
z
" id="DejaVuSans-2c"/>
     <path d="M 9.8125 72.90625 
L 19.671875 72.90625 
L 19.671875 0 
L 9.8125 0 
z
" id="DejaVuSans-49"/>
     <path d="M 48.78125 52.59375 
L 48.78125 44.1875 
Q 44.96875 46.296875 41.140625 47.34375 
Q 37.3125 48.390625 33.40625 48.390625 
Q 24.65625 48.390625 19.8125 42.84375 
Q 14.984375 37.3125 14.984375 27.296875 
Q 14.984375 17.28125 19.8125 11.734375 
Q 24.65625 6.203125 33.40625 6.203125 
Q 37.3125 6.203125 41.140625 7.25 
Q 44.96875 8.296875 48.78125 10.40625 
L 48.78125 2.09375 
Q 45.015625 0.34375 40.984375 -0.53125 
Q 36.96875 -1.421875 32.421875 -1.421875 
Q 20.0625 -1.421875 12.78125 6.34375 
Q 5.515625 14.109375 5.515625 27.296875 
Q 5.515625 40.671875 12.859375 48.328125 
Q 20.21875 56 33.015625 56 
Q 37.15625 56 41.109375 55.140625 
Q 45.0625 54.296875 48.78125 52.59375 
z
" id="DejaVuSans-63"/>
     <path d="M 56.203125 29.59375 
L 56.203125 25.203125 
L 14.890625 25.203125 
Q 15.484375 15.921875 20.484375 11.0625 
Q 25.484375 6.203125 34.421875 6.203125 
Q 39.59375 6.203125 44.453125 7.46875 
Q 49.3125 8.734375 54.109375 11.28125 
L 54.109375 2.78125 
Q 49.265625 0.734375 44.1875 -0.34375 
Q 39.109375 -1.421875 33.890625 -1.421875 
Q 20.796875 -1.421875 13.15625 6.1875 
Q 5.515625 13.8125 5.515625 26.8125 
Q 5.515625 40.234375 12.765625 48.109375 
Q 20.015625 56 32.328125 56 
Q 43.359375 56 49.78125 48.890625 
Q 56.203125 41.796875 56.203125 29.59375 
z
M 47.21875 32.234375 
Q 47.125 39.59375 43.09375 43.984375 
Q 39.0625 48.390625 32.421875 48.390625 
Q 24.90625 48.390625 20.390625 44.140625 
Q 15.875 39.890625 15.1875 32.171875 
z
" id="DejaVuSans-65"/>
     <path d="M 44.28125 53.078125 
L 44.28125 44.578125 
Q 40.484375 46.53125 36.375 47.5 
Q 32.28125 48.484375 27.875 48.484375 
Q 21.1875 48.484375 17.84375 46.4375 
Q 14.5 44.390625 14.5 40.28125 
Q 14.5 37.15625 16.890625 35.375 
Q 19.28125 33.59375 26.515625 31.984375 
L 29.59375 31.296875 
Q 39.15625 29.25 43.1875 25.515625 
Q 47.21875 21.78125 47.21875 15.09375 
Q 47.21875 7.46875 41.1875 3.015625 
Q 35.15625 -1.421875 24.609375 -1.421875 
Q 20.21875 -1.421875 15.453125 -0.5625 
Q 10.6875 0.296875 5.421875 2 
L 5.421875 11.28125 
Q 10.40625 8.6875 15.234375 7.390625 
Q 20.0625 6.109375 24.8125 6.109375 
Q 31.15625 6.109375 34.5625 8.28125 
Q 37.984375 10.453125 37.984375 14.40625 
Q 37.984375 18.0625 35.515625 20.015625 
Q 33.0625 21.96875 24.703125 23.78125 
L 21.578125 24.515625 
Q 13.234375 26.265625 9.515625 29.90625 
Q 5.8125 33.546875 5.8125 39.890625 
Q 5.8125 47.609375 11.28125 51.796875 
Q 16.75 56 26.8125 56 
Q 31.78125 56 36.171875 55.265625 
Q 40.578125 54.546875 44.28125 53.078125 
z
" id="DejaVuSans-73"/>
     <path d="M 54.890625 33.015625 
L 54.890625 0 
L 45.90625 0 
L 45.90625 32.71875 
Q 45.90625 40.484375 42.875 44.328125 
Q 39.84375 48.1875 33.796875 48.1875 
Q 26.515625 48.1875 22.3125 43.546875 
Q 18.109375 38.921875 18.109375 30.90625 
L 18.109375 0 
L 9.078125 0 
L 9.078125 75.984375 
L 18.109375 75.984375 
L 18.109375 46.1875 
Q 21.34375 51.125 25.703125 53.5625 
Q 30.078125 56 35.796875 56 
Q 45.21875 56 50.046875 50.171875 
Q 54.890625 44.34375 54.890625 33.015625 
z
" id="DejaVuSans-68"/>
     <path d="M 18.3125 70.21875 
L 18.3125 54.6875 
L 36.8125 54.6875 
L 36.8125 47.703125 
L 18.3125 47.703125 
L 18.3125 18.015625 
Q 18.3125 11.328125 20.140625 9.421875 
Q 21.96875 7.515625 27.59375 7.515625 
L 36.8125 7.515625 
L 36.8125 0 
L 27.59375 0 
Q 17.1875 0 13.234375 3.875 
Q 9.28125 7.765625 9.28125 18.015625 
L 9.28125 47.703125 
L 2.6875 47.703125 
L 2.6875 54.6875 
L 9.28125 54.6875 
L 9.28125 70.21875 
z
" id="DejaVuSans-74"/>
     <path d="M 34.28125 27.484375 
Q 23.390625 27.484375 19.1875 25 
Q 14.984375 22.515625 14.984375 16.5 
Q 14.984375 11.71875 18.140625 8.90625 
Q 21.296875 6.109375 26.703125 6.109375 
Q 34.1875 6.109375 38.703125 11.40625 
Q 43.21875 16.703125 43.21875 25.484375 
L 43.21875 27.484375 
z
M 52.203125 31.203125 
L 52.203125 0 
L 43.21875 0 
L 43.21875 8.296875 
Q 40.140625 3.328125 35.546875 0.953125 
Q 30.953125 -1.421875 24.3125 -1.421875 
Q 15.921875 -1.421875 10.953125 3.296875 
Q 6 8.015625 6 15.921875 
Q 6 25.140625 12.171875 29.828125 
Q 18.359375 34.515625 30.609375 34.515625 
L 43.21875 34.515625 
L 43.21875 35.40625 
Q 43.21875 41.609375 39.140625 45 
Q 35.0625 48.390625 27.6875 48.390625 
Q 23 48.390625 18.546875 47.265625 
Q 14.109375 46.140625 10.015625 43.890625 
L 10.015625 52.203125 
Q 14.9375 54.109375 19.578125 55.046875 
Q 24.21875 56 28.609375 56 
Q 40.484375 56 46.34375 49.84375 
Q 52.203125 43.703125 52.203125 31.203125 
z
" id="DejaVuSans-61"/>
     <path d="M 54.890625 33.015625 
L 54.890625 0 
L 45.90625 0 
L 45.90625 32.71875 
Q 45.90625 40.484375 42.875 44.328125 
Q 39.84375 48.1875 33.796875 48.1875 
Q 26.515625 48.1875 22.3125 43.546875 
Q 18.109375 38.921875 18.109375 30.90625 
L 18.109375 0 
L 9.078125 0 
L 9.078125 54.6875 
L 18.109375 54.6875 
L 18.109375 46.1875 
Q 21.34375 51.125 25.703125 53.5625 
Q 30.078125 56 35.796875 56 
Q 45.21875 56 50.046875 50.171875 
Q 54.890625 44.34375 54.890625 33.015625 
z
" id="DejaVuSans-6e"/>
     <path d="M 9.421875 54.6875 
L 18.40625 54.6875 
L 18.40625 0 
L 9.421875 0 
z
M 9.421875 75.984375 
L 18.40625 75.984375 
L 18.40625 64.59375 
L 9.421875 64.59375 
z
" id="DejaVuSans-69"/>
     <path d="M 31 75.875 
Q 24.46875 64.65625 21.28125 53.65625 
Q 18.109375 42.671875 18.109375 31.390625 
Q 18.109375 20.125 21.3125 9.0625 
Q 24.515625 -2 31 -13.1875 
L 23.1875 -13.1875 
Q 15.875 -1.703125 12.234375 9.375 
Q 8.59375 20.453125 8.59375 31.390625 
Q 8.59375 42.28125 12.203125 53.3125 
Q 15.828125 64.359375 23.1875 75.875 
z
" id="DejaVuSans-28"/>
     <path d="M 6.296875 72.90625 
L 16.890625 72.90625 
L 35.015625 45.796875 
L 53.21875 72.90625 
L 63.8125 72.90625 
L 40.375 37.890625 
L 65.375 0 
L 54.78125 0 
L 34.28125 31 
L 13.625 0 
L 2.984375 0 
L 29 38.921875 
z
" id="DejaVuSans-58"/>
     <path d="M 8.015625 75.875 
L 15.828125 75.875 
Q 23.140625 64.359375 26.78125 53.3125 
Q 30.421875 42.28125 30.421875 31.390625 
Q 30.421875 20.453125 26.78125 9.375 
Q 23.140625 -1.703125 15.828125 -13.1875 
L 8.015625 -13.1875 
Q 14.5 -2 17.703125 9.0625 
Q 20.90625 20.125 20.90625 31.390625 
Q 20.90625 42.671875 17.703125 53.65625 
Q 14.5 64.65625 8.015625 75.875 
z
" id="DejaVuSans-29"/>
    </defs>
    <g transform="translate(85.6775 20.8)scale(0.12 -0.12)">
     <use xlink:href="#DejaVuSans-43"/>
     <use x="69.824219" xlink:href="#DejaVuSans-4d"/>
     <use x="156.103516" xlink:href="#DejaVuSans-2d"/>
     <use x="192.1875" xlink:href="#DejaVuSans-43"/>
     <use x="262.011719" xlink:href="#DejaVuSans-46"/>
     <use x="319.53125" xlink:href="#DejaVuSans-20"/>
     <use x="351.318359" xlink:href="#DejaVuSans-66"/>
     <use x="386.523438" xlink:href="#DejaVuSans-72"/>
     <use x="427.605469" xlink:href="#DejaVuSans-6f"/>
     <use x="488.787109" xlink:href="#DejaVuSans-6d"/>
     <use x="586.199219" xlink:href="#DejaVuSans-20"/>
     <use x="617.986328" xlink:href="#DejaVuSans-48"/>
     <use x="693.181641" xlink:href="#DejaVuSans-79"/>
     <use x="752.361328" xlink:href="#DejaVuSans-64"/>
     <use x="815.837891" xlink:href="#DejaVuSans-72"/>
     <use x="856.919922" xlink:href="#DejaVuSans-6f"/>
     <use x="918.101562" xlink:href="#DejaVuSans-6c"/>
     <use x="945.884766" xlink:href="#DejaVuSans-6f"/>
     <use x="1007.066406" xlink:href="#DejaVuSans-67"/>
     <use x="1070.542969" xlink:href="#DejaVuSans-79"/>
     <use x="1129.722656" xlink:href="#DejaVuSans-2c"/>
     <use x="1161.509766" xlink:href="#DejaVuSans-20"/>
     <use x="1193.296875" xlink:href="#DejaVuSans-49"/>
     <use x="1222.789062" xlink:href="#DejaVuSans-63"/>
     <use x="1277.769531" xlink:href="#DejaVuSans-65"/>
     <use x="1339.292969" xlink:href="#DejaVuSans-20"/>
     <use x="1371.080078" xlink:href="#DejaVuSans-73"/>
     <use x="1423.179688" xlink:href="#DejaVuSans-68"/>
     <use x="1486.558594" xlink:href="#DejaVuSans-65"/>
     <use x="1548.082031" xlink:href="#DejaVuSans-65"/>
     <use x="1609.605469" xlink:href="#DejaVuSans-74"/>
     <use x="1648.814453" xlink:href="#DejaVuSans-73"/>
     <use x="1700.914062" xlink:href="#DejaVuSans-20"/>
     <use x="1732.701172" xlink:href="#DejaVuSans-61"/>
     <use x="1793.980469" xlink:href="#DejaVuSans-6e"/>
     <use x="1857.359375" xlink:href="#DejaVuSans-64"/>
     <use x="1920.835938" xlink:href="#DejaVuSans-20"/>
     <use x="1952.623047" xlink:href="#DejaVuSans-67"/>
     <use x="2016.099609" xlink:href="#DejaVuSans-6c"/>
     <use x="2043.882812" xlink:href="#DejaVuSans-61"/>
     <use x="2105.162109" xlink:href="#DejaVuSans-63"/>
     <use x="2160.142578" xlink:href="#DejaVuSans-69"/>
     <use x="2187.925781" xlink:href="#DejaVuSans-65"/>
     <use x="2249.449219" xlink:href="#DejaVuSans-72"/>
     <use x="2290.5625" xlink:href="#DejaVuSans-73"/>
     <use x="2342.662109" xlink:href="#DejaVuSans-20"/>
     <use x="2374.449219" xlink:href="#DejaVuSans-28"/>
     <use x="2413.462891" xlink:href="#DejaVuSans-58"/>
     <use x="2481.96875" xlink:href="#DejaVuSans-29"/>
    </g>
   </g>
  </g>
  <g id="axes_2">
   <g id="patch_7">
    <path d="M 56.175 167.8 
L 417.7 167.8 
L 417.7 119.2 
L 56.175 119.2 
z
" style="fill:#ffffff;"/>
   </g>
   <g id="matplotlib.axis_3">
    <g id="xtick_9">
     <g id="line2d_12">
      <g>
       <use style="stroke:#000000;stroke-width:0.8;" x="65.935058" xlink:href="#m977f34ed16" y="167.8"/>
      </g>
     </g>
     <g id="text_13">
      <!-- 2002 -->
      <g transform="translate(53.210058 182.398438)scale(0.1 -0.1)">
       <use xlink:href="#DejaVuSans-32"/>
       <use x="63.623047" xlink:href="#DejaVuSans-30"/>
       <use x="127.246094" xlink:href="#DejaVuSans-30"/>
       <use x="190.869141" xlink:href="#DejaVuSans-32"/>
      </g>
     </g>
    </g>
    <g id="xtick_10">
     <g id="line2d_13">
      <g>
       <use style="stroke:#000000;stroke-width:0.8;" x="112.327615" xlink:href="#m977f34ed16" y="167.8"/>
      </g>
     </g>
     <g id="text_14">
      <!-- 2004 -->
      <g transform="translate(99.602615 182.398438)scale(0.1 -0.1)">
       <use xlink:href="#DejaVuSans-32"/>
       <use x="63.623047" xlink:href="#DejaVuSans-30"/>
       <use x="127.246094" xlink:href="#DejaVuSans-30"/>
       <use x="190.869141" xlink:href="#DejaVuSans-34"/>
      </g>
     </g>
    </g>
    <g id="xtick_11">
     <g id="line2d_14">
      <g>
       <use style="stroke:#000000;stroke-width:0.8;" x="158.720171" xlink:href="#m977f34ed16" y="167.8"/>
      </g>
     </g>
     <g id="text_15">
      <!-- 2006 -->
      <g transform="translate(145.995171 182.398438)scale(0.1 -0.1)">
       <use xlink:href="#DejaVuSans-32"/>
       <use x="63.623047" xlink:href="#DejaVuSans-30"/>
       <use x="127.246094" xlink:href="#DejaVuSans-30"/>
       <use x="190.869141" xlink:href="#DejaVuSans-36"/>
      </g>
     </g>
    </g>
    <g id="xtick_12">
     <g id="line2d_15">
      <g>
       <use style="stroke:#000000;stroke-width:0.8;" x="205.112728" xlink:href="#m977f34ed16" y="167.8"/>
      </g>
     </g>
     <g id="text_16">
      <!-- 2008 -->
      <g transform="translate(192.387728 182.398438)scale(0.1 -0.1)">
       <use xlink:href="#DejaVuSans-32"/>
       <use x="63.623047" xlink:href="#DejaVuSans-30"/>
       <use x="127.246094" xlink:href="#DejaVuSans-30"/>
       <use x="190.869141" xlink:href="#DejaVuSans-38"/>
      </g>
     </g>
    </g>
    <g id="xtick_13">
     <g id="line2d_16">
      <g>
       <use style="stroke:#000000;stroke-width:0.8;" x="251.505285" xlink:href="#m977f34ed16" y="167.8"/>
      </g>
     </g>
     <g id="text_17">
      <!-- 2010 -->
      <g transform="translate(238.780285 182.398438)scale(0.1 -0.1)">
       <use xlink:href="#DejaVuSans-32"/>
       <use x="63.623047" xlink:href="#DejaVuSans-30"/>
       <use x="127.246094" xlink:href="#DejaVuSans-31"/>
       <use x="190.869141" xlink:href="#DejaVuSans-30"/>
      </g>
     </g>
    </g>
    <g id="xtick_14">
     <g id="line2d_17">
      <g>
       <use style="stroke:#000000;stroke-width:0.8;" x="297.897841" xlink:href="#m977f34ed16" y="167.8"/>
      </g>
     </g>
     <g id="text_18">
      <!-- 2012 -->
      <g transform="translate(285.172841 182.398438)scale(0.1 -0.1)">
       <use xlink:href="#DejaVuSans-32"/>
       <use x="63.623047" xlink:href="#DejaVuSans-30"/>
       <use x="127.246094" xlink:href="#DejaVuSans-31"/>
       <use x="190.869141" xlink:href="#DejaVuSans-32"/>
      </g>
     </g>
    </g>
    <g id="xtick_15">
     <g id="line2d_18">
      <g>
       <use style="stroke:#000000;stroke-width:0.8;" x="344.290398" xlink:href="#m977f34ed16" y="167.8"/>
      </g>
     </g>
     <g id="text_19">
      <!-- 2014 -->
      <g transform="translate(331.565398 182.398438)scale(0.1 -0.1)">
       <use xlink:href="#DejaVuSans-32"/>
       <use x="63.623047" xlink:href="#DejaVuSans-30"/>
       <use x="127.246094" xlink:href="#DejaVuSans-31"/>
       <use x="190.869141" xlink:href="#DejaVuSans-34"/>
      </g>
     </g>
    </g>
    <g id="xtick_16">
     <g id="line2d_19">
      <g>
       <use style="stroke:#000000;stroke-width:0.8;" x="390.682955" xlink:href="#m977f34ed16" y="167.8"/>
      </g>
     </g>
     <g id="text_20">
      <!-- 2016 -->
      <g transform="translate(377.957955 182.398438)scale(0.1 -0.1)">
       <use xlink:href="#DejaVuSans-32"/>
       <use x="63.623047" xlink:href="#DejaVuSans-30"/>
       <use x="127.246094" xlink:href="#DejaVuSans-31"/>
       <use x="190.869141" xlink:href="#DejaVuSans-36"/>
      </g>
     </g>
    </g>
   </g>
   <g id="matplotlib.axis_4">
    <g id="ytick_3">
     <g id="line2d_20">
      <g>
       <use style="stroke:#000000;stroke-width:0.8;" x="56.175" xlink:href="#m8233a37f8d" y="167.888208"/>
      </g>
     </g>
     <g id="text_21">
      <!-- −2.5 -->
      <defs>
       <path d="M 10.59375 35.5 
L 73.1875 35.5 
L 73.1875 27.203125 
L 10.59375 27.203125 
z
" id="DejaVuSans-2212"/>
      </defs>
      <g transform="translate(24.892188 171.687427)scale(0.1 -0.1)">
       <use xlink:href="#DejaVuSans-2212"/>
       <use x="83.789062" xlink:href="#DejaVuSans-32"/>
       <use x="147.412109" xlink:href="#DejaVuSans-2e"/>
       <use x="179.199219" xlink:href="#DejaVuSans-35"/>
      </g>
     </g>
    </g>
    <g id="ytick_4">
     <g id="line2d_21">
      <g>
       <use style="stroke:#000000;stroke-width:0.8;" x="56.175" xlink:href="#m8233a37f8d" y="148.316738"/>
      </g>
     </g>
     <g id="text_22">
      <!-- 0.0 -->
      <g transform="translate(33.271875 152.115957)scale(0.1 -0.1)">
       <use xlink:href="#DejaVuSans-30"/>
       <use x="63.623047" xlink:href="#DejaVuSans-2e"/>
       <use x="95.410156" xlink:href="#DejaVuSans-30"/>
      </g>
     </g>
    </g>
    <g id="ytick_5">
     <g id="line2d_22">
      <g>
       <use style="stroke:#000000;stroke-width:0.8;" x="56.175" xlink:href="#m8233a37f8d" y="128.745269"/>
      </g>
     </g>
     <g id="text_23">
      <!-- 2.5 -->
      <g transform="translate(33.271875 132.544487)scale(0.1 -0.1)">
       <use xlink:href="#DejaVuSans-32"/>
       <use x="63.623047" xlink:href="#DejaVuSans-2e"/>
       <use x="95.410156" xlink:href="#DejaVuSans-35"/>
      </g>
     </g>
    </g>
    <g id="text_24">
     <!-- mm -->
     <g transform="translate(18.8125 153.240625)rotate(-90)scale(0.1 -0.1)">
      <use xlink:href="#DejaVuSans-6d"/>
      <use x="97.412109" xlink:href="#DejaVuSans-6d"/>
     </g>
    </g>
   </g>
   <g id="line2d_23">
    <path clip-path="url(#p4179cd5538)" d="M 72.607955 157.276808 
L 74.546282 156.515759 
L 80.39302 151.713122 
L 82.331324 145.663512 
L 84.269652 145.576553 
L 86.207979 142.930378 
L 88.146283 145.111711 
L 90.116389 143.094712 
L 93.865929 155.047509 
L 95.804233 155.362345 
L 97.74256 158.357364 
L 101.619192 152.686255 
L 103.589298 146.336233 
L 105.527602 138.173276 
L 107.46593 137.20852 
L 109.404257 140.200779 
L 111.342561 139.318043 
L 115.211306 147.177448 
L 117.112636 150.512899 
L 119.045651 155.583436 
L 120.97869 161.93571 
L 122.911705 165.369611 
L 124.844721 155.828522 
L 126.809446 145.341141 
L 128.742461 137.323201 
L 130.6755 139.591558 
L 132.608515 146.057528 
L 134.541531 150.964105 
L 136.508946 148.720871 
L 138.383716 150.750909 
L 140.258485 155.897295 
L 142.19679 162.053601 
L 144.135117 164.780079 
L 146.073444 161.405848 
L 148.011749 150.327298 
L 149.981855 142.109665 
L 151.920159 139.032558 
L 153.858487 137.93715 
L 155.796814 138.150417 
L 157.735118 145.09699 
L 159.705224 152.983948 
L 161.579994 158.836216 
L 163.454764 158.517788 
L 165.393068 159.068599 
L 167.331395 162.464273 
L 169.269723 159.174191 
L 171.208027 152.760656 
L 175.116437 135.925148 
L 177.054765 137.950921 
L 178.993092 144.165363 
L 180.931397 144.675718 
L 182.901503 143.85998 
L 184.776272 144.571085 
L 186.651042 146.844097 
L 188.589346 153.744139 
L 190.527674 159.885833 
L 192.466001 157.227981 
L 194.404305 142.967467 
L 198.312716 127.27924 
L 200.251043 130.637282 
L 202.189371 135.933642 
L 204.127675 140.550746 
L 206.09509 142.010346 
L 207.99642 145.736758 
L 209.897749 152.050957 
L 211.830765 155.503702 
L 213.763803 161.099554 
L 215.696819 159.548061 
L 217.629834 147.600191 
L 219.594559 140.322239 
L 221.527574 134.387504 
L 223.460613 133.488759 
L 225.393629 136.076326 
L 227.326644 140.112308 
L 229.29406 143.258837 
L 231.168829 146.476796 
L 233.043599 154.787736 
L 234.981903 159.327913 
L 236.92023 165.338406 
L 238.858558 165.590909 
L 240.796862 154.535626 
L 242.766968 144.640174 
L 246.6436 139.042672 
L 248.581927 141.022268 
L 250.520232 143.452146 
L 252.490338 144.206253 
L 254.365107 147.81341 
L 256.239877 147.878985 
L 258.178181 151.912158 
L 260.116509 154.610164 
L 262.054836 153.030402 
L 267.901551 124.279717 
L 269.839878 124.600352 
L 271.778206 129.488522 
L 273.71651 133.292026 
L 277.561386 140.219278 
L 279.436155 150.710986 
L 281.37446 154.561055 
L 283.312787 157.458854 
L 287.189419 145.099683 
L 289.159525 133.568054 
L 291.097829 127.531211 
L 298.880204 136.392413 
L 300.781533 144.357042 
L 302.682862 150.657389 
L 308.481932 151.729745 
L 310.414948 142.953399 
L 312.379672 128.187607 
L 314.312688 121.409091 
L 318.178742 121.998184 
L 320.111757 128.632208 
L 322.079173 131.914351 
L 323.953943 134.126601 
L 327.767016 145.342836 
L 329.705344 150.159675 
L 331.643671 146.376942 
L 333.581975 137.917211 
L 339.428713 123.045775 
L 341.367041 125.736766 
L 343.305345 128.989998 
L 345.275451 132.020585 
L 349.02499 141.701762 
L 350.963295 144.079022 
L 352.901622 147.167146 
L 354.83995 146.772985 
L 358.74836 133.233061 
L 360.686664 124.68815 
L 362.624992 122.585931 
L 364.563319 124.856848 
L 368.47173 131.175356 
L 370.346499 135.659188 
L 372.221269 141.635107 
L 374.159573 149.49041 
L 381.944638 133.449686 
L 383.882943 127.20717 
L 391.665317 129.500226 
L 395.467976 139.226104 
L 399.33403 141.197387 
L 401.267045 143.050764 
L 401.267045 143.050764 
" style="fill:none;stroke:#1f77b4;stroke-linecap:square;stroke-width:1.5;"/>
   </g>
   <g id="patch_8">
    <path d="M 56.175 167.8 
L 56.175 119.2 
" style="fill:none;stroke:#000000;stroke-linecap:square;stroke-linejoin:miter;stroke-width:0.8;"/>
   </g>
   <g id="patch_9">
    <path d="M 417.7 167.8 
L 417.7 119.2 
" style="fill:none;stroke:#000000;stroke-linecap:square;stroke-linejoin:miter;stroke-width:0.8;"/>
   </g>
   <g id="patch_10">
    <path d="M 56.175 167.8 
L 417.7 167.8 
" style="fill:none;stroke:#000000;stroke-linecap:square;stroke-linejoin:miter;stroke-width:0.8;"/>
   </g>
   <g id="patch_11">
    <path d="M 56.175 119.2 
L 417.7 119.2 
" style="fill:none;stroke:#000000;stroke-linecap:square;stroke-linejoin:miter;stroke-width:0.8;"/>
   </g>
   <g id="text_25">
    <!--  (Y) -->
    <defs>
     <path d="M -0.203125 72.90625 
L 10.40625 72.90625 
L 30.609375 42.921875 
L 50.6875 72.90625 
L 61.28125 72.90625 
L 35.5 34.71875 
L 35.5 0 
L 25.59375 0 
L 25.59375 34.71875 
z
" id="DejaVuSans-59"/>
    </defs>
    <g transform="translate(226.684063 113.2)scale(0.12 -0.12)">
     <use xlink:href="#DejaVuSans-20"/>
     <use x="31.787109" xlink:href="#DejaVuSans-28"/>
     <use x="70.800781" xlink:href="#DejaVuSans-59"/>
     <use x="131.884766" xlink:href="#DejaVuSans-29"/>
    </g>
   </g>
  </g>
  <g id="axes_3">
   <g id="patch_12">
    <path d="M 56.175 260.2 
L 417.7 260.2 
L 417.7 211.6 
L 56.175 211.6 
z
" style="fill:#ffffff;"/>
   </g>
   <g id="matplotlib.axis_5">
    <g id="xtick_17">
     <g id="line2d_24">
      <g>
       <use style="stroke:#000000;stroke-width:0.8;" x="65.935058" xlink:href="#m977f34ed16" y="260.2"/>
      </g>
     </g>
     <g id="text_26">
      <!-- 2002 -->
      <g transform="translate(53.210058 274.798438)scale(0.1 -0.1)">
       <use xlink:href="#DejaVuSans-32"/>
       <use x="63.623047" xlink:href="#DejaVuSans-30"/>
       <use x="127.246094" xlink:href="#DejaVuSans-30"/>
       <use x="190.869141" xlink:href="#DejaVuSans-32"/>
      </g>
     </g>
    </g>
    <g id="xtick_18">
     <g id="line2d_25">
      <g>
       <use style="stroke:#000000;stroke-width:0.8;" x="112.327615" xlink:href="#m977f34ed16" y="260.2"/>
      </g>
     </g>
     <g id="text_27">
      <!-- 2004 -->
      <g transform="translate(99.602615 274.798438)scale(0.1 -0.1)">
       <use xlink:href="#DejaVuSans-32"/>
       <use x="63.623047" xlink:href="#DejaVuSans-30"/>
       <use x="127.246094" xlink:href="#DejaVuSans-30"/>
       <use x="190.869141" xlink:href="#DejaVuSans-34"/>
      </g>
     </g>
    </g>
    <g id="xtick_19">
     <g id="line2d_26">
      <g>
       <use style="stroke:#000000;stroke-width:0.8;" x="158.720171" xlink:href="#m977f34ed16" y="260.2"/>
      </g>
     </g>
     <g id="text_28">
      <!-- 2006 -->
      <g transform="translate(145.995171 274.798438)scale(0.1 -0.1)">
       <use xlink:href="#DejaVuSans-32"/>
       <use x="63.623047" xlink:href="#DejaVuSans-30"/>
       <use x="127.246094" xlink:href="#DejaVuSans-30"/>
       <use x="190.869141" xlink:href="#DejaVuSans-36"/>
      </g>
     </g>
    </g>
    <g id="xtick_20">
     <g id="line2d_27">
      <g>
       <use style="stroke:#000000;stroke-width:0.8;" x="205.112728" xlink:href="#m977f34ed16" y="260.2"/>
      </g>
     </g>
     <g id="text_29">
      <!-- 2008 -->
      <g transform="translate(192.387728 274.798438)scale(0.1 -0.1)">
       <use xlink:href="#DejaVuSans-32"/>
       <use x="63.623047" xlink:href="#DejaVuSans-30"/>
       <use x="127.246094" xlink:href="#DejaVuSans-30"/>
       <use x="190.869141" xlink:href="#DejaVuSans-38"/>
      </g>
     </g>
    </g>
    <g id="xtick_21">
     <g id="line2d_28">
      <g>
       <use style="stroke:#000000;stroke-width:0.8;" x="251.505285" xlink:href="#m977f34ed16" y="260.2"/>
      </g>
     </g>
     <g id="text_30">
      <!-- 2010 -->
      <g transform="translate(238.780285 274.798438)scale(0.1 -0.1)">
       <use xlink:href="#DejaVuSans-32"/>
       <use x="63.623047" xlink:href="#DejaVuSans-30"/>
       <use x="127.246094" xlink:href="#DejaVuSans-31"/>
       <use x="190.869141" xlink:href="#DejaVuSans-30"/>
      </g>
     </g>
    </g>
    <g id="xtick_22">
     <g id="line2d_29">
      <g>
       <use style="stroke:#000000;stroke-width:0.8;" x="297.897841" xlink:href="#m977f34ed16" y="260.2"/>
      </g>
     </g>
     <g id="text_31">
      <!-- 2012 -->
      <g transform="translate(285.172841 274.798438)scale(0.1 -0.1)">
       <use xlink:href="#DejaVuSans-32"/>
       <use x="63.623047" xlink:href="#DejaVuSans-30"/>
       <use x="127.246094" xlink:href="#DejaVuSans-31"/>
       <use x="190.869141" xlink:href="#DejaVuSans-32"/>
      </g>
     </g>
    </g>
    <g id="xtick_23">
     <g id="line2d_30">
      <g>
       <use style="stroke:#000000;stroke-width:0.8;" x="344.290398" xlink:href="#m977f34ed16" y="260.2"/>
      </g>
     </g>
     <g id="text_32">
      <!-- 2014 -->
      <g transform="translate(331.565398 274.798438)scale(0.1 -0.1)">
       <use xlink:href="#DejaVuSans-32"/>
       <use x="63.623047" xlink:href="#DejaVuSans-30"/>
       <use x="127.246094" xlink:href="#DejaVuSans-31"/>
       <use x="190.869141" xlink:href="#DejaVuSans-34"/>
      </g>
     </g>
    </g>
    <g id="xtick_24">
     <g id="line2d_31">
      <g>
       <use style="stroke:#000000;stroke-width:0.8;" x="390.682955" xlink:href="#m977f34ed16" y="260.2"/>
      </g>
     </g>
     <g id="text_33">
      <!-- 2016 -->
      <g transform="translate(377.957955 274.798438)scale(0.1 -0.1)">
       <use xlink:href="#DejaVuSans-32"/>
       <use x="63.623047" xlink:href="#DejaVuSans-30"/>
       <use x="127.246094" xlink:href="#DejaVuSans-31"/>
       <use x="190.869141" xlink:href="#DejaVuSans-36"/>
      </g>
     </g>
    </g>
   </g>
   <g id="matplotlib.axis_6">
    <g id="ytick_6">
     <g id="line2d_32">
      <g>
       <use style="stroke:#000000;stroke-width:0.8;" x="56.175" xlink:href="#m8233a37f8d" y="250.580178"/>
      </g>
     </g>
     <g id="text_34">
      <!-- −5 -->
      <g transform="translate(34.432813 254.379397)scale(0.1 -0.1)">
       <use xlink:href="#DejaVuSans-2212"/>
       <use x="83.789062" xlink:href="#DejaVuSans-35"/>
      </g>
     </g>
    </g>
    <g id="ytick_7">
     <g id="line2d_33">
      <g>
       <use style="stroke:#000000;stroke-width:0.8;" x="56.175" xlink:href="#m8233a37f8d" y="231.933236"/>
      </g>
     </g>
     <g id="text_35">
      <!-- 0 -->
      <g transform="translate(42.8125 235.732455)scale(0.1 -0.1)">
       <use xlink:href="#DejaVuSans-30"/>
      </g>
     </g>
    </g>
    <g id="ytick_8">
     <g id="line2d_34">
      <g>
       <use style="stroke:#000000;stroke-width:0.8;" x="56.175" xlink:href="#m8233a37f8d" y="213.286294"/>
      </g>
     </g>
     <g id="text_36">
      <!-- 5 -->
      <g transform="translate(42.8125 217.085513)scale(0.1 -0.1)">
       <use xlink:href="#DejaVuSans-35"/>
      </g>
     </g>
    </g>
    <g id="text_37">
     <!-- mm -->
     <g transform="translate(28.353125 245.640625)rotate(-90)scale(0.1 -0.1)">
      <use xlink:href="#DejaVuSans-6d"/>
      <use x="97.412109" xlink:href="#DejaVuSans-6d"/>
     </g>
    </g>
   </g>
   <g id="line2d_35">
    <path clip-path="url(#pfdf5a9132f)" d="M 72.607955 217.390631 
L 74.546282 216.845126 
L 80.39302 237.236154 
L 82.331324 241.661637 
L 84.269652 240.999293 
L 86.207979 237.467958 
L 88.146283 235.720777 
L 90.116389 231.039591 
L 91.991159 221.837733 
L 93.865929 224.040243 
L 95.804233 229.244374 
L 97.74256 228.932577 
L 101.619192 238.323345 
L 103.589298 238.901945 
L 105.527602 242.443163 
L 107.46593 248.570996 
L 109.404257 239.754696 
L 111.342561 235.304615 
L 115.211306 222.257979 
L 117.112636 224.986855 
L 119.045651 221.496971 
L 120.97869 220.561335 
L 122.911705 225.744998 
L 124.844721 234.440542 
L 126.809446 241.116407 
L 128.742461 246.27326 
L 130.6755 245.958507 
L 134.541531 225.497923 
L 136.508946 219.576918 
L 138.383716 217.793756 
L 140.258485 216.187046 
L 142.19679 215.914096 
L 144.135117 218.062783 
L 146.073444 231.022924 
L 148.011749 239.256077 
L 149.981855 239.974428 
L 151.920159 240.247538 
L 153.858487 238.735066 
L 155.796814 239.612457 
L 157.735118 231.617045 
L 159.705224 219.629678 
L 161.579994 213.809091 
L 163.454764 217.416633 
L 165.393068 219.904109 
L 167.331395 221.690027 
L 169.269723 227.475878 
L 171.208027 236.39169 
L 173.178133 239.069999 
L 175.116437 242.776153 
L 177.054765 246.811859 
L 180.931397 225.043314 
L 182.901503 221.61165 
L 184.776272 223.316574 
L 186.651042 217.984156 
L 188.589346 218.437605 
L 190.527674 222.616534 
L 194.404305 240.22072 
L 196.374412 243.461596 
L 198.312716 246.128034 
L 200.251043 246.454799 
L 202.189371 240.312952 
L 204.127675 233.266882 
L 206.09509 229.087697 
L 207.99642 227.021658 
L 209.897749 220.451587 
L 211.830765 222.465221 
L 213.763803 226.752974 
L 217.629834 241.099935 
L 219.594559 242.955637 
L 221.527574 247.307863 
L 223.460613 245.123199 
L 225.393629 242.557574 
L 227.326644 235.890953 
L 229.29406 230.43907 
L 231.168829 230.041574 
L 233.043599 224.705543 
L 234.981903 222.622098 
L 236.92023 227.412591 
L 238.858558 238.075759 
L 240.796862 246.657615 
L 242.766968 250.317305 
L 244.705273 250.087116 
L 246.6436 250.972834 
L 248.581927 247.617 
L 250.520232 239.770214 
L 252.490338 233.60748 
L 254.365107 234.704735 
L 256.239877 233.97471 
L 258.178181 230.679086 
L 260.116509 232.869187 
L 262.054836 241.654782 
L 263.99314 245.399207 
L 265.963247 250.443123 
L 267.901551 251.285394 
L 269.839878 251.439582 
L 271.778206 246.763693 
L 273.71651 241.429363 
L 277.561386 234.822999 
L 279.436155 225.310073 
L 281.37446 223.334691 
L 283.312787 231.982033 
L 287.189419 250.494275 
L 289.159525 253.457539 
L 291.097829 254.383054 
L 293.036157 251.440988 
L 298.880204 236.095744 
L 300.781533 228.116035 
L 302.682862 225.359104 
L 308.481932 243.116381 
L 310.414948 247.378069 
L 312.379672 250.732639 
L 314.312688 252.897452 
L 318.178742 248.128307 
L 320.111757 243.982651 
L 322.079173 236.960556 
L 323.953943 234.986129 
L 327.767016 234.237972 
L 329.705344 233.69516 
L 333.581975 250.04836 
L 339.428713 255.922959 
L 341.367041 247.67381 
L 343.305345 242.099702 
L 345.275451 237.5262 
L 349.02499 230.67824 
L 350.963295 231.803308 
L 352.901622 234.662129 
L 354.83995 242.202983 
L 358.74836 256.538234 
L 360.686664 257.990909 
L 362.624992 256.990847 
L 364.563319 252.452909 
L 368.47173 240.961041 
L 370.346499 234.294615 
L 372.221269 232.103526 
L 374.159573 233.42107 
L 381.944638 254.842709 
L 383.882943 257.601516 
L 391.665317 244.593286 
L 395.467976 236.595964 
L 399.33403 241.033171 
L 401.267045 248.222123 
L 401.267045 248.222123 
" style="fill:none;stroke:#1f77b4;stroke-linecap:square;stroke-width:1.5;"/>
   </g>
   <g id="patch_13">
    <path d="M 56.175 260.2 
L 56.175 211.6 
" style="fill:none;stroke:#000000;stroke-linecap:square;stroke-linejoin:miter;stroke-width:0.8;"/>
   </g>
   <g id="patch_14">
    <path d="M 417.7 260.2 
L 417.7 211.6 
" style="fill:none;stroke:#000000;stroke-linecap:square;stroke-linejoin:miter;stroke-width:0.8;"/>
   </g>
   <g id="patch_15">
    <path d="M 56.175 260.2 
L 417.7 260.2 
" style="fill:none;stroke:#000000;stroke-linecap:square;stroke-linejoin:miter;stroke-width:0.8;"/>
   </g>
   <g id="patch_16">
    <path d="M 56.175 211.6 
L 417.7 211.6 
" style="fill:none;stroke:#000000;stroke-linecap:square;stroke-linejoin:miter;stroke-width:0.8;"/>
   </g>
   <g id="text_38">
    <!-- (Z) -->
    <defs>
     <path d="M 5.609375 72.90625 
L 62.890625 72.90625 
L 62.890625 65.375 
L 16.796875 8.296875 
L 64.015625 8.296875 
L 64.015625 0 
L 4.5 0 
L 4.5 7.515625 
L 50.59375 64.59375 
L 5.609375 64.59375 
z
" id="DejaVuSans-5a"/>
    </defs>
    <g transform="translate(228.145625 205.6)scale(0.12 -0.12)">
     <use xlink:href="#DejaVuSans-28"/>
     <use x="39.013672" xlink:href="#DejaVuSans-5a"/>
     <use x="107.519531" xlink:href="#DejaVuSans-29"/>
    </g>
   </g>
  </g>
 </g>
 <defs>
  <clipPath id="p2e4c1c9e28">
   <rect height="48.6" width="361.525" x="56.175" y="26.8"/>
  </clipPath>
  <clipPath id="p4179cd5538">
   <rect height="48.6" width="361.525" x="56.175" y="119.2"/>
  </clipPath>
  <clipPath id="pfdf5a9132f">
   <rect height="48.6" width="361.525" x="56.175" y="211.6"/>
  </clipPath>
 </defs>
</svg>
